<mxfile host="app.diagrams.net" agent="Mozilla/5.0 (Windows NT 10.0; Win64; x64) AppleWebKit/537.36 (KHTML, like Gecko) Chrome/127.0.0.0 Safari/537.36" version="24.7.7">
  <diagram name="PÃ¡gina-1" id="l0xOSFyWj0LyBlbwpkrQ">
    <mxGraphModel dx="587" dy="311" grid="1" gridSize="10" guides="1" tooltips="1" connect="1" arrows="1" fold="1" page="1" pageScale="1" pageWidth="827" pageHeight="1169" math="0" shadow="0">
      <root>
        <mxCell id="0" />
        <mxCell id="1" parent="0" />
        <mxCell id="CtaJCUM1NLiR4Ts7drCT-16" style="edgeStyle=orthogonalEdgeStyle;rounded=0;orthogonalLoop=1;jettySize=auto;html=1;exitX=0.25;exitY=1;exitDx=0;exitDy=0;entryX=0.5;entryY=0;entryDx=0;entryDy=0;" edge="1" parent="1" source="CtaJCUM1NLiR4Ts7drCT-1" target="CtaJCUM1NLiR4Ts7drCT-2">
          <mxGeometry relative="1" as="geometry">
            <Array as="points">
              <mxPoint x="360" y="260" />
            </Array>
          </mxGeometry>
        </mxCell>
        <mxCell id="CtaJCUM1NLiR4Ts7drCT-17" style="edgeStyle=orthogonalEdgeStyle;rounded=0;orthogonalLoop=1;jettySize=auto;html=1;exitX=0;exitY=1;exitDx=0;exitDy=0;entryX=0.5;entryY=0;entryDx=0;entryDy=0;" edge="1" parent="1" source="CtaJCUM1NLiR4Ts7drCT-1" target="CtaJCUM1NLiR4Ts7drCT-12">
          <mxGeometry relative="1" as="geometry">
            <Array as="points">
              <mxPoint x="310" y="260" />
            </Array>
          </mxGeometry>
        </mxCell>
        <mxCell id="CtaJCUM1NLiR4Ts7drCT-18" style="edgeStyle=orthogonalEdgeStyle;rounded=0;orthogonalLoop=1;jettySize=auto;html=1;exitX=0.75;exitY=1;exitDx=0;exitDy=0;" edge="1" parent="1" source="CtaJCUM1NLiR4Ts7drCT-1" target="CtaJCUM1NLiR4Ts7drCT-7">
          <mxGeometry relative="1" as="geometry">
            <Array as="points">
              <mxPoint x="410" y="260" />
            </Array>
          </mxGeometry>
        </mxCell>
        <mxCell id="CtaJCUM1NLiR4Ts7drCT-19" style="edgeStyle=orthogonalEdgeStyle;rounded=0;orthogonalLoop=1;jettySize=auto;html=1;exitX=1;exitY=1;exitDx=0;exitDy=0;entryX=0.5;entryY=0;entryDx=0;entryDy=0;" edge="1" parent="1" source="CtaJCUM1NLiR4Ts7drCT-1" target="CtaJCUM1NLiR4Ts7drCT-11">
          <mxGeometry relative="1" as="geometry" />
        </mxCell>
        <mxCell id="CtaJCUM1NLiR4Ts7drCT-25" value="" style="edgeStyle=orthogonalEdgeStyle;rounded=0;orthogonalLoop=1;jettySize=auto;html=1;" edge="1" parent="1" source="CtaJCUM1NLiR4Ts7drCT-1" target="CtaJCUM1NLiR4Ts7drCT-13">
          <mxGeometry relative="1" as="geometry">
            <Array as="points">
              <mxPoint x="290" y="250" />
              <mxPoint x="290" y="280" />
            </Array>
          </mxGeometry>
        </mxCell>
        <mxCell id="CtaJCUM1NLiR4Ts7drCT-27" style="edgeStyle=orthogonalEdgeStyle;rounded=0;orthogonalLoop=1;jettySize=auto;html=1;exitX=0;exitY=0.5;exitDx=0;exitDy=0;entryX=1;entryY=0.5;entryDx=0;entryDy=0;" edge="1" parent="1" source="CtaJCUM1NLiR4Ts7drCT-1" target="CtaJCUM1NLiR4Ts7drCT-10">
          <mxGeometry relative="1" as="geometry">
            <Array as="points">
              <mxPoint x="300" y="230" />
            </Array>
          </mxGeometry>
        </mxCell>
        <mxCell id="CtaJCUM1NLiR4Ts7drCT-28" style="edgeStyle=orthogonalEdgeStyle;rounded=0;orthogonalLoop=1;jettySize=auto;html=1;exitX=0;exitY=0.25;exitDx=0;exitDy=0;entryX=1;entryY=0.5;entryDx=0;entryDy=0;" edge="1" parent="1" source="CtaJCUM1NLiR4Ts7drCT-1" target="CtaJCUM1NLiR4Ts7drCT-5">
          <mxGeometry relative="1" as="geometry">
            <Array as="points">
              <mxPoint x="290" y="208" />
              <mxPoint x="290" y="180" />
            </Array>
          </mxGeometry>
        </mxCell>
        <mxCell id="CtaJCUM1NLiR4Ts7drCT-1" value="Aluno" style="rounded=0;whiteSpace=wrap;html=1;" vertex="1" parent="1">
          <mxGeometry x="300" y="190" width="154.5" height="70" as="geometry" />
        </mxCell>
        <mxCell id="CtaJCUM1NLiR4Ts7drCT-2" value="nome" style="ellipse;whiteSpace=wrap;html=1;" vertex="1" parent="1">
          <mxGeometry x="340" y="320.63" width="40" height="28.75" as="geometry" />
        </mxCell>
        <mxCell id="CtaJCUM1NLiR4Ts7drCT-29" style="edgeStyle=orthogonalEdgeStyle;rounded=0;orthogonalLoop=1;jettySize=auto;html=1;exitX=0;exitY=0.5;exitDx=0;exitDy=0;entryX=1;entryY=0.5;entryDx=0;entryDy=0;" edge="1" parent="1" source="CtaJCUM1NLiR4Ts7drCT-5" target="CtaJCUM1NLiR4Ts7drCT-14">
          <mxGeometry relative="1" as="geometry" />
        </mxCell>
        <mxCell id="CtaJCUM1NLiR4Ts7drCT-5" value="nascimento" style="ellipse;whiteSpace=wrap;html=1;" vertex="1" parent="1">
          <mxGeometry x="200" y="160" width="70" height="40" as="geometry" />
        </mxCell>
        <mxCell id="CtaJCUM1NLiR4Ts7drCT-7" value="genero" style="ellipse;whiteSpace=wrap;html=1;" vertex="1" parent="1">
          <mxGeometry x="385" y="320" width="50" height="30" as="geometry" />
        </mxCell>
        <mxCell id="CtaJCUM1NLiR4Ts7drCT-10" value="data_matric" style="ellipse;whiteSpace=wrap;html=1;" vertex="1" parent="1">
          <mxGeometry x="200" y="210" width="70" height="40" as="geometry" />
        </mxCell>
        <mxCell id="CtaJCUM1NLiR4Ts7drCT-11" value="CPF" style="ellipse;whiteSpace=wrap;html=1;" vertex="1" parent="1">
          <mxGeometry x="440" y="320" width="40" height="30" as="geometry" />
        </mxCell>
        <mxCell id="CtaJCUM1NLiR4Ts7drCT-12" value="RA" style="ellipse;whiteSpace=wrap;html=1;" vertex="1" parent="1">
          <mxGeometry x="290" y="320" width="40" height="30" as="geometry" />
        </mxCell>
        <mxCell id="CtaJCUM1NLiR4Ts7drCT-13" value="id_turma" style="ellipse;whiteSpace=wrap;html=1;" vertex="1" parent="1">
          <mxGeometry x="200" y="260" width="70" height="40" as="geometry" />
        </mxCell>
        <mxCell id="CtaJCUM1NLiR4Ts7drCT-14" value="idade" style="ellipse;whiteSpace=wrap;html=1;dashed=1;" vertex="1" parent="1">
          <mxGeometry x="140" y="165" width="46" height="30" as="geometry" />
        </mxCell>
      </root>
    </mxGraphModel>
  </diagram>
</mxfile>
